<svg width="160" height="77" viewBox="0 0 160 77" fill="none" xmlns="http://www.w3.org/2000/svg">
<path d="M46.9445 33.2233C44.7236 33.2233 42.746 32.7365 41.0423 31.7934C39.3081 30.8503 37.9694 29.4508 36.9959 27.6254C36.0223 25.8 35.5355 23.5487 35.5355 20.9019V13.7525C35.5355 9.76708 36.6308 6.72477 38.7909 4.59515C40.951 2.49596 43.9021 1.43115 47.5834 1.43115C51.2647 1.43115 54.0638 2.43511 55.9805 4.41261C57.9276 6.42053 58.8708 9.06735 58.8708 12.4139V12.5964H54.581V12.2922C54.581 10.9536 54.3376 9.76707 53.8508 8.70227C53.364 7.63746 52.573 6.81604 51.5386 6.17715C50.5041 5.56869 49.1655 5.26446 47.553 5.26446C45.1495 5.26446 43.2328 5.99461 41.8637 7.48534C40.4946 8.97607 39.7949 11.0144 39.7949 13.6308V20.9628C39.7949 23.5487 40.4946 25.6175 41.8637 27.1082C43.2328 28.6294 45.1495 29.39 47.6139 29.39C50.0782 29.39 51.8124 28.7206 52.9381 27.3516C54.0638 26.013 54.6418 24.218 54.6418 22.058V21.3887H46.0014V17.6771H58.8708V32.554H54.8852V29.3595H54.2159C53.9421 29.968 53.5466 30.5765 52.9989 31.1545C52.4513 31.7325 51.6907 32.2193 50.7171 32.5844C49.7436 32.9495 48.4962 33.1624 46.9141 33.1624L46.9445 33.2233Z" fill="white"/>
<path d="M75.5735 33.2233C71.8618 33.2233 68.941 32.1585 66.7809 30.0593C64.6208 27.9601 63.5256 24.8874 63.5256 20.9019V13.7525C63.5256 9.76708 64.6208 6.72477 66.7809 4.59515C68.941 2.49596 71.8922 1.43115 75.5735 1.43115C79.2548 1.43115 82.0538 2.43511 84.0314 4.47346C86.0089 6.51181 86.9825 9.28031 86.9825 12.779V12.9919H82.6927V12.6573C82.6927 10.4972 82.1147 8.73269 80.9585 7.36366C79.8024 5.99462 78.0074 5.29488 75.5735 5.29488C73.1396 5.29488 71.2533 6.02504 69.8842 7.51577C68.5151 9.0065 67.8154 11.0448 67.8154 13.6612V20.9932C67.8154 23.5792 68.5151 25.6175 69.8842 27.1387C71.2533 28.6294 73.17 29.39 75.5735 29.39C77.977 29.39 79.772 28.6902 80.9585 27.3212C82.1147 25.9522 82.6927 24.1572 82.6927 22.0276V21.3279H86.9825V21.9059C86.9825 25.435 86.0089 28.2035 84.0314 30.2114C82.0538 32.2497 79.2548 33.2537 75.5735 33.2537V33.2233Z" fill="white"/>
<path d="M95.8967 32.6128H91.6069V2.0376H110.287V5.93175H95.8662V15.3325H109.131V19.2571H95.8662V32.6128H95.8967Z" fill="white"/>
<path d="M113.451 33.2221C112.508 33.2221 111.748 32.9178 111.109 32.279C110.47 31.6401 110.135 30.8491 110.135 29.906C110.135 28.9629 110.47 28.111 111.109 27.5025C111.748 26.8941 112.539 26.5898 113.451 26.5898C114.364 26.5898 115.216 26.8941 115.824 27.5025C116.463 28.111 116.768 28.902 116.768 29.906C116.768 30.9099 116.463 31.6705 115.824 32.279C115.185 32.9178 114.394 33.2221 113.451 33.2221Z" fill="white"/>
<path d="M131.858 32.6128H127.72V4.92779H127.021L121.636 15.4542H117.194L124.191 2.0376H131.889V32.6128H131.858Z" fill="white"/>
<path d="M148.408 33.2207C144.849 33.2207 142.05 32.2167 139.951 30.1784C137.882 28.14 136.817 25.0977 136.817 21.021V13.6891C136.817 9.67321 137.851 6.6309 139.951 4.56213C142.019 2.49336 144.849 1.45898 148.408 1.45898C151.968 1.45898 154.737 2.49336 156.806 4.56213C158.874 6.6309 159.939 9.67321 159.939 13.6891V21.021C159.939 25.0977 158.905 28.14 156.806 30.1784C154.737 32.2167 151.907 33.2207 148.408 33.2207ZM148.408 29.5091C150.873 29.5091 152.729 28.7789 153.946 27.3186C155.163 25.8583 155.771 23.7895 155.771 21.1731V13.4457C155.771 10.7989 155.132 8.76052 153.854 7.30021C152.577 5.87033 150.751 5.14017 148.408 5.14017C146.066 5.14017 144.149 5.87033 142.871 7.33064C141.593 8.79094 140.985 10.8293 140.985 13.4153V21.1427C140.985 23.8199 141.593 25.8887 142.841 27.3186C144.088 28.7485 145.944 29.4786 148.408 29.4786V29.5091Z" fill="white"/>
<path d="M41.7115 59.0499H39.6123V49.0711H39.308L37.7564 52.7219H35.5355L37.8781 47.5195H41.6811V59.0499H41.7115Z" fill="white"/>
<path d="M47.8266 59.2961C46.4575 59.2961 45.3622 58.931 44.5408 58.1705C43.7193 57.4099 43.2934 56.2842 43.2934 54.7631V51.8729C43.2934 50.3822 43.7193 49.2565 44.5408 48.4959C45.3622 47.7353 46.4575 47.3398 47.8266 47.3398C49.1957 47.3398 50.2909 47.7353 51.1124 48.4959C51.9338 49.2565 52.3293 50.4126 52.3293 51.8729V54.7631C52.3293 56.2842 51.9338 57.4403 51.1124 58.1705C50.2909 58.931 49.1957 59.2961 47.8266 59.2961ZM47.8266 57.4099C48.648 57.4099 49.2565 57.1969 49.652 56.7406C50.0475 56.2842 50.2301 55.6453 50.2301 54.8239V51.7512C50.2301 50.8993 50.0171 50.2605 49.5912 49.8345C49.1652 49.4086 48.5872 49.1956 47.8266 49.1956C47.066 49.1956 46.4879 49.4086 46.062 49.865C45.636 50.3213 45.4231 50.9602 45.4231 51.7512V54.8239C45.4231 55.7062 45.636 56.3451 46.0316 56.771C46.4271 57.1969 47.0356 57.4099 47.8266 57.4099Z" fill="white"/>
<path d="M62.7649 59.0497H60.6048V55.0947L56.6801 47.5498H59.114L61.5479 52.4783H61.8521L64.2861 47.5498H66.72L62.7953 55.0947V59.0497H62.7649Z" fill="white"/>
<path d="M75.1168 59.0499H67.6021V47.5195H75.0255V49.497H69.7926V52.2351H74.5692V54.2126H69.7926V57.0724H75.1168V59.0499Z" fill="white"/>
<path d="M77.8552 59.0499H75.6038L78.6462 47.5195H82.4188L85.4612 59.0499H83.2098L82.5709 56.5248H78.4637L77.8248 59.0499H77.8552ZM80.3804 48.8886L78.9809 54.5168H82.0842L80.6846 48.8886H80.3804Z" fill="white"/>
<path d="M88.7164 59.0499H86.5563V47.5195H91.5763C92.3065 47.5195 92.9454 47.6412 93.4626 47.8846C94.0102 48.128 94.4057 48.4931 94.71 48.9494C95.0142 49.4058 95.1663 49.9534 95.1663 50.5923V50.7748C95.1663 51.4745 95.0142 52.0222 94.6796 52.4481C94.3449 52.874 93.9494 53.1782 93.4626 53.3912V53.6954C93.8885 53.6954 94.2536 53.878 94.497 54.1518C94.7404 54.4256 94.8621 54.7906 94.8621 55.2774V59.0499H92.702V55.5816C92.702 55.3078 92.6411 55.0949 92.489 54.9428C92.3369 54.7907 92.1239 54.6994 91.8197 54.6994H88.7773V59.0499H88.7164ZM88.7164 49.497V52.7219H91.3329C91.8501 52.7219 92.2456 52.5698 92.5499 52.296C92.8541 52.0222 92.9758 51.6571 92.9758 51.1703V51.0182C92.9758 50.5618 92.8237 50.1968 92.5499 49.8925C92.2761 49.6187 91.8501 49.4666 91.3329 49.4666H88.7164V49.497Z" fill="white"/>
<path d="M100.643 59.2953C99.7605 59.2953 98.9695 59.1432 98.3002 58.8085C97.6308 58.5043 97.0832 58.0479 96.6877 57.4395C96.2922 56.8614 96.1096 56.1313 96.1096 55.3099V54.8535H98.2393V55.3099C98.2393 56.0096 98.4523 56.5268 98.8782 56.8614C99.3042 57.1961 99.8822 57.3786 100.612 57.3786C101.343 57.3786 101.921 57.2265 102.286 56.9223C102.651 56.6181 102.833 56.253 102.833 55.7966C102.833 55.3403 102.742 55.2186 102.56 55.036C102.377 54.8535 102.103 54.671 101.769 54.5493C101.434 54.4276 101.008 54.3059 100.521 54.1842L100.156 54.0929C99.365 53.9104 98.6957 53.6974 98.1176 53.4236C97.5396 53.1498 97.1136 52.8152 96.8094 52.3588C96.5051 51.9329 96.353 51.3549 96.353 50.6551C96.353 49.9554 96.5051 49.3469 96.8702 48.8602C97.2049 48.3734 97.6917 47.9779 98.3002 47.7041C98.9086 47.4303 99.6388 47.3086 100.46 47.3086C101.282 47.3086 102.012 47.4607 102.651 47.7345C103.29 48.0083 103.807 48.4342 104.172 48.9819C104.537 49.5295 104.72 50.2292 104.72 51.0506V51.5374H102.59V51.0506C102.59 50.6247 102.499 50.2596 102.347 49.9858C102.164 49.712 101.921 49.5295 101.616 49.4078C101.312 49.2861 100.917 49.2252 100.491 49.2252C99.8214 49.2252 99.3346 49.3469 99.0303 49.5903C98.7261 49.8337 98.574 50.1684 98.574 50.5943C98.574 51.0202 98.6348 51.1115 98.7869 51.3244C98.9391 51.507 99.152 51.6895 99.4563 51.8112C99.7605 51.9329 100.126 52.0546 100.582 52.1459L100.947 52.2371C101.769 52.4197 102.499 52.6326 103.107 52.9064C103.716 53.1802 104.202 53.5453 104.537 54.0017C104.872 54.458 105.054 55.036 105.054 55.7358C105.054 56.4355 104.872 57.044 104.507 57.5916C104.142 58.1392 103.655 58.5347 102.985 58.8389C102.347 59.1432 101.556 59.2953 100.673 59.2953H100.643Z" fill="white"/>
<path d="M114.638 59.2961C113.178 59.2961 112.021 58.9006 111.17 58.1096C110.318 57.3186 109.892 56.1625 109.892 54.7022V51.9337C109.892 50.443 110.318 49.3174 111.17 48.5264C112.021 47.7354 113.178 47.3398 114.638 47.3398C116.098 47.3398 117.254 47.7354 118.106 48.5264C118.958 49.3174 119.384 50.4734 119.384 51.9337V54.7022C119.384 56.193 118.958 57.3186 118.106 58.1096C117.254 58.9006 116.098 59.2961 114.638 59.2961ZM114.638 57.349C115.459 57.349 116.068 57.1056 116.524 56.6493C116.981 56.1625 117.193 55.5541 117.193 54.7631V51.8729C117.193 51.0819 116.981 50.443 116.524 49.9867C116.068 49.4999 115.429 49.2869 114.638 49.2869C113.847 49.2869 113.208 49.5303 112.752 49.9867C112.295 50.4734 112.082 51.0819 112.082 51.8729V54.7631C112.082 55.5541 112.295 56.193 112.752 56.6493C113.208 57.1361 113.847 57.349 114.638 57.349Z" fill="white"/>
<path d="M123.157 59.0499H120.997V47.5195H128.237V49.497H123.157V52.2655H127.842V54.243H123.157V59.0499Z" fill="white"/>
<path d="M40.829 76.3034C39.3991 76.3034 38.2734 75.9079 37.452 75.1169C36.6305 74.3259 36.2046 73.1698 36.2046 71.7095V68.941C36.2046 67.4503 36.6305 66.3247 37.452 65.5337C38.2734 64.7427 39.4295 64.3472 40.829 64.3472C42.2286 64.3472 43.3542 64.7427 44.1148 65.5032C44.8754 66.2638 45.271 67.3286 45.271 68.6977V68.7889H43.1413V68.6368C43.1413 67.9675 42.9587 67.3895 42.5632 66.9635C42.1981 66.5376 41.6201 66.2942 40.829 66.2942C40.038 66.2942 39.46 66.5376 39.0036 66.994C38.5777 67.4807 38.3343 68.1196 38.3343 68.9106V71.74C38.3343 72.531 38.5472 73.1699 39.0036 73.6566C39.4295 74.1434 40.038 74.3868 40.829 74.3868C41.6201 74.3868 42.1981 74.1738 42.5632 73.7175C42.9283 73.2611 43.1413 72.7135 43.1413 72.0442V71.74H45.271V71.9834C45.271 73.322 44.8754 74.3868 44.1148 75.1778C43.3542 75.9384 42.259 76.3339 40.829 76.3339V76.3034Z" fill="white"/>
<path d="M54.1853 76.0577H46.7314V64.5273H48.8915V74.0802H54.1549V76.0577H54.1853Z" fill="white"/>
<path d="M57.5316 76.0577H55.3715V64.5273H57.5316V76.0577Z" fill="white"/>
<path d="M61.4873 76.0577H59.388V64.5273H63.4344L65.412 74.567H65.7162L67.6938 64.5273H71.7402V76.0577H69.6409V66.1398H69.3367L67.3591 76.0577H63.7691L61.7915 66.1398H61.4873V76.0577Z" fill="white"/>
<path d="M75.0258 76.0577H72.7744L75.8168 64.5273H79.5894L82.6318 76.0577H80.3804L79.7415 73.5326H75.6343L74.9954 76.0577H75.0258ZM77.5814 65.9268L76.1819 71.5551H79.2852L77.8857 65.9268H77.5814Z" fill="white"/>
<path d="M87.4994 76.0577H85.3393V66.5048H81.9926V64.5273H90.8764V66.5048H87.5298V76.0577H87.4994Z" fill="white"/>
<path d="M99.5473 76.0577H92.0326V64.5273H99.4561V66.5048H94.2231V69.2429H98.9997V71.2204H94.2231V74.0802H99.5473V76.0577Z" fill="white"/>
<path d="M106.88 76.0577H104.72V64.5273H106.88V76.0577Z" fill="white"/>
<path d="M110.865 76.0577H108.766V64.5273H112.812L114.79 74.567H115.094L117.072 64.5273H121.118V76.0577H119.019V66.1398H118.715L116.737 76.0577H113.147L111.169 66.1398H110.865V76.0577Z" fill="white"/>
<path d="M125.134 76.0577H122.974V64.5273H127.72C128.45 64.5273 129.089 64.6795 129.637 64.9533C130.185 65.2575 130.611 65.653 130.945 66.1702C131.249 66.6874 131.402 67.3263 131.402 68.0564V68.2998C131.402 68.9995 131.249 69.6384 130.915 70.1556C130.58 70.7032 130.154 71.0987 129.607 71.403C129.059 71.7072 128.42 71.8289 127.72 71.8289H125.165V76.0577H125.134ZM125.134 66.5353V69.8818H127.477C127.994 69.8818 128.42 69.7297 128.724 69.4559C129.028 69.1821 129.211 68.7866 129.211 68.2998V68.1477C129.211 67.6609 129.059 67.2654 128.724 66.9916C128.42 66.7178 127.994 66.5657 127.477 66.5657H125.134V66.5353Z" fill="white"/>
<path d="M133.166 76.0577H130.914L133.957 64.5273H137.729L140.772 76.0577H138.521L137.882 73.5326H133.774L133.135 76.0577H133.166ZM135.691 65.9268L134.292 71.5551H137.395L135.995 65.9268H135.691Z" fill="white"/>
<path d="M146.127 76.3034C144.697 76.3034 143.571 75.9079 142.75 75.1169C141.928 74.3259 141.502 73.1698 141.502 71.7095V68.941C141.502 67.4503 141.928 66.3247 142.75 65.5337C143.571 64.7427 144.727 64.3472 146.127 64.3472C147.526 64.3472 148.652 64.7427 149.413 65.5032C150.173 66.2638 150.569 67.3286 150.569 68.6977V68.7889H148.439V68.6368C148.439 67.9675 148.257 67.3895 147.861 66.9635C147.496 66.5376 146.918 66.2942 146.127 66.2942C145.336 66.2942 144.758 66.5376 144.301 66.994C143.875 67.4807 143.632 68.1196 143.632 68.9106V71.74C143.632 72.531 143.845 73.1699 144.301 73.6566C144.727 74.1434 145.336 74.3868 146.127 74.3868C146.918 74.3868 147.496 74.1738 147.861 73.7175C148.226 73.2611 148.439 72.7135 148.439 72.0442V71.74H150.569V71.9834C150.569 73.322 150.173 74.3868 149.413 75.1778C148.652 75.9384 147.557 76.3339 146.127 76.3339V76.3034Z" fill="white"/>
<path d="M156.623 76.0577H154.463V66.5048H151.116V64.5273H160V66.5048H156.653V76.0577H156.623Z" fill="white"/>
<path d="M3.25549 15.2125L10.2226 12.3223L10.7702 20.5365L3.25549 15.2125Z" fill="#00A544"/>
<path d="M18.2847 14.8159L24.4607 17.1585L19.3495 23.3344L18.2847 14.8159Z" fill="#00817F"/>
<path d="M10.8007 20.5364L4.28991 23.8221L3.25549 15.2124L10.8007 20.5364Z" fill="#008C80"/>
<path d="M24.9171 21.9038L19.3495 23.3337L11.9869 26.5281L18.0413 27.0757L24.9171 21.9038Z" fill="#00627B"/>
<path d="M10.8003 20.5355L19.3495 23.3344L18.2846 14.8159L10.8003 20.5355Z" fill="#008B80"/>
<path d="M18.2845 14.8151L10.2222 12.3204L15.7289 6.05322L18.2845 14.8151Z" fill="#00A544"/>
<path d="M5.96338 6.32704L10.2227 12.3204L15.7295 6.05322L5.9938 6.32704H5.96338Z" fill="#31AE36"/>
<path d="M0 17.583L3.25538 15.21L0.121699 9.33838L0 17.583Z" fill="#00A139"/>
<path d="M0.121582 9.34001L3.25526 15.2117L5.963 6.32812L0.121582 9.34001Z" fill="#47B52F"/>
<path d="M0.121582 9.33935L5.963 6.32746L4.47222 2.88965L0.121582 9.33935Z" fill="#67BF4B"/>
<path d="M10.2226 12.3215L5.96323 6.32812L3.25549 15.2117L10.2226 12.3215Z" fill="#00A03F"/>
<path d="M0 17.5854L4.28979 23.8221L3.25538 15.2124L0 17.5854Z" fill="#00813A"/>
<path d="M10.8921 0L5.96338 6.32801L15.7295 6.05419L10.8921 0Z" fill="#59BA29"/>
<path d="M4.47217 2.89019L5.96294 6.32801L10.8916 0L4.47217 2.89019Z" fill="#47B52F"/>
<path d="M10.7698 20.5365L10.2222 12.3223L18.2845 14.817L10.7698 20.5365Z" fill="#009B3E"/>
<path d="M19.3495 23.3336L10.8003 20.5347L11.9868 26.528L19.3495 23.3336Z" fill="#00818D"/>
<path d="M4.28967 23.8223L11.987 26.5299L18.0414 27.0775L9.15752 27.108L4.28967 23.8223Z" fill="#00818D"/>
<path d="M18.2847 14.8152L24.4607 17.1578L23.8827 9.00439L18.2847 14.8152Z" fill="#00968B"/>
<path d="M23.8828 9.00631L24.5521 5.14258L27.2903 13.296L23.8828 9.00631Z" fill="#006D5C"/>
<path d="M10.8922 0L19.5326 2.31216L17.3725 0.152115L10.8922 0Z" fill="#00AA52"/>
<path d="M15.7296 6.05419L19.5326 2.31216L10.8922 0L15.7296 6.05419Z" fill="#47B52F"/>
<path d="M15.7289 6.05322L18.2845 14.8151L23.8825 9.00427L15.7289 6.05322Z" fill="#009B3E"/>
<path d="M15.7289 6.05258L19.5319 2.31055L23.8825 9.00362L15.7289 6.05258Z" fill="#00A139"/>
<path d="M17.3721 0.152344L19.5322 2.31238L23.8829 9.00546L24.5522 5.14173L17.3721 0.152344Z" fill="#00923D"/>
<path d="M4.28967 23.8204L10.8004 20.5347L11.987 26.528L4.28967 23.8204Z" fill="#007C87"/>
<path d="M19.3499 23.3351L24.9175 21.9052L24.4611 17.1592L19.3499 23.3351Z" fill="#007788"/>
<path d="M24.4609 17.1578L27.2903 13.2941L23.8828 9.00439L24.4609 17.1578Z" fill="#00823B"/>
<path d="M27.2903 13.293L24.9172 21.9027L24.4609 17.1567L27.2903 13.293Z" fill="#007481"/>
</svg>
