<svg width="500" height="54" viewBox="0 0 500 54" fill="none" xmlns="http://www.w3.org/2000/svg">
<path d="M72.7082 52.3593C69.2661 52.3593 66.2012 51.6049 63.5607 50.1433C60.873 48.6817 58.7983 46.5128 57.2894 43.6838C55.7806 40.8548 55.0261 37.3657 55.0261 33.2637V22.1835C55.0261 16.0069 56.7236 11.2919 60.0714 7.99146C63.4192 4.73813 67.993 3.08789 73.6984 3.08789C79.4038 3.08789 83.7418 4.64383 86.7124 7.70856C89.7301 10.8204 91.1918 14.9225 91.1918 20.1089V20.3918H84.5434V19.9203C84.5434 17.8457 84.1661 16.0069 83.4117 14.3567C82.6573 12.7064 81.4313 11.4334 79.8281 10.4432C78.225 9.50025 76.1503 9.02875 73.6512 9.02875C69.9262 9.02875 66.9556 10.1603 64.8338 12.4707C62.7119 14.781 61.6274 17.94 61.6274 21.9949V33.358C61.6274 37.3657 62.7119 40.5719 64.8338 42.8822C66.9556 45.2397 69.9262 46.4185 73.7455 46.4185C77.5648 46.4185 80.2525 45.3812 81.9971 43.2594C83.7418 41.1848 84.6377 38.403 84.6377 35.0554V34.0181H71.2465V28.2658H91.1918V51.322H85.0149V46.3713H83.9775C83.5532 47.3143 82.9402 48.2573 82.0914 49.1531C81.2427 50.049 80.0639 50.8034 78.555 51.3692C77.0462 51.935 75.1129 52.265 72.661 52.265L72.7082 52.3593Z" fill="#ffffff"/>
<path d="M117.125 52.3593C111.373 52.3593 106.846 50.7091 103.498 47.4557C100.15 44.2024 98.4529 39.4403 98.4529 33.2637V22.1835C98.4529 16.0069 100.15 11.2919 103.498 7.99145C106.846 4.73813 111.42 3.08789 117.125 3.08789C122.831 3.08789 127.169 4.64383 130.233 7.80286C133.298 10.9619 134.807 15.2525 134.807 20.6747V21.0048H128.159V20.4861C128.159 17.1385 127.263 14.4038 125.471 12.2821C123.679 10.1603 120.897 9.0759 117.125 9.0759C113.353 9.0759 110.43 10.2075 108.308 12.5178C106.186 14.8282 105.101 17.9872 105.101 22.0421V33.4051C105.101 37.4129 106.186 40.5719 108.308 42.9294C110.43 45.2397 113.4 46.4184 117.125 46.4184C120.85 46.4184 123.632 45.334 125.471 43.2123C127.263 41.0905 128.159 38.3087 128.159 35.0082V33.9238H134.807V34.8196C134.807 40.289 133.298 44.5796 130.233 47.6915C127.169 50.8505 122.831 52.4064 117.125 52.4064V52.3593Z" fill="#ffffff"/>
<path d="M148.576 51.425H141.928V4.03955H170.879V10.0747H148.529V24.644H169.087V30.7263H148.529V51.425H148.576Z" fill="#ffffff"/>
<path d="M175.784 52.3646C174.323 52.3646 173.144 51.8931 172.154 50.9029C171.163 49.9128 170.645 48.6869 170.645 47.2253C170.645 45.7636 171.163 44.4434 172.154 43.5004C173.144 42.5574 174.37 42.0859 175.784 42.0859C177.199 42.0859 178.519 42.5574 179.462 43.5004C180.452 44.4434 180.924 45.6693 180.924 47.2253C180.924 48.7812 180.452 49.9599 179.462 50.9029C178.472 51.8931 177.246 52.3646 175.784 52.3646Z" fill="#ffffff"/>
<path d="M204.358 51.425H197.946V8.51877H196.861L188.515 24.8326H181.631L192.476 4.03955H204.406V51.425H204.358Z" fill="#ffffff"/>
<path d="M229.961 52.3605C224.444 52.3605 220.106 50.8046 216.853 47.6455C213.646 44.4865 211.996 39.7716 211.996 33.4535V22.0904C211.996 15.8667 213.599 11.1517 216.853 7.94551C220.059 4.73933 224.444 3.13623 229.961 3.13623C235.478 3.13623 239.769 4.73933 242.975 7.94551C246.181 11.1517 247.832 15.8667 247.832 22.0904V33.4535C247.832 39.7716 246.229 44.4865 242.975 47.6455C239.769 50.8046 235.384 52.3605 229.961 52.3605ZM229.961 46.6083C233.78 46.6083 236.657 45.4767 238.543 43.2135C240.429 40.9503 241.372 37.7441 241.372 33.6892V21.7132C241.372 17.6112 240.382 14.4522 238.401 12.189C236.421 9.97294 233.592 8.84135 229.961 8.84135C226.33 8.84135 223.36 9.97294 221.379 12.2361C219.399 14.4993 218.456 17.6583 218.456 21.6661V33.6421C218.456 37.7913 219.399 40.9974 221.332 43.2135C223.265 45.4295 226.142 46.5611 229.961 46.5611V46.6083Z" fill="#ffffff"/>
<path d="M295.361 23.081H291.73V5.82426H291.211L288.524 12.1423H284.704L288.759 3.13672H295.361V23.081Z" fill="#ffffff"/>
<path d="M305.922 23.4687C303.564 23.4687 301.678 22.8086 300.263 21.5356C298.849 20.2154 298.141 18.2823 298.141 15.6419V10.644C298.141 8.09793 298.849 6.11764 300.263 4.79745C301.678 3.47726 303.564 2.77002 305.922 2.77002C308.279 2.77002 310.212 3.43011 311.627 4.79745C313.042 6.11764 313.749 8.09793 313.749 10.644V15.6419C313.749 18.2823 313.042 20.2625 311.627 21.5356C310.212 22.8558 308.326 23.4687 305.922 23.4687ZM305.922 20.2154C307.336 20.2154 308.373 19.8382 309.081 19.0367C309.741 18.2351 310.071 17.1507 310.071 15.689V10.4083C310.071 8.94663 309.694 7.86218 308.939 7.10779C308.185 6.35339 307.195 5.97619 305.922 5.97619C304.648 5.97619 303.611 6.35339 302.857 7.15493C302.102 7.95648 301.772 9.04093 301.772 10.4083V15.689C301.772 17.1978 302.102 18.3294 302.81 19.0838C303.517 19.8382 304.554 20.2154 305.922 20.2154Z" fill="#ffffff"/>
<path d="M331.811 23.0806H328.038V16.1967L321.249 3.13623H325.445L329.642 11.6703H330.16L334.357 3.13623H338.553L331.763 16.1967V23.0806H331.811Z" fill="#ffffff"/>
<path d="M353.123 23.0806H340.109V3.13623H352.935V6.53101H343.881V11.2931H352.133V14.7351H343.881V19.6858H353.123V23.1277V23.0806Z" fill="#ffffff"/>
<path d="M357.886 23.0806H354.019L359.253 3.13623H365.807L371.041 23.0806H367.175L366.09 18.6956H358.97L357.886 23.0806ZM362.271 5.49372L359.866 15.2066H365.242L362.837 5.49372H362.318H362.271Z" fill="#ffffff"/>
<path d="M376.651 23.0806H372.879V3.13623H381.555C382.828 3.13623 383.913 3.37198 384.809 3.79633C385.752 4.22068 386.459 4.83362 386.978 5.63517C387.496 6.43671 387.732 7.3797 387.732 8.46415V8.79419C387.732 9.97294 387.449 10.9631 386.883 11.7175C386.318 12.4719 385.61 12.9905 384.762 13.3206V13.8392C385.516 13.8392 386.129 14.1221 386.506 14.6408C386.931 15.1123 387.119 15.7723 387.119 16.5739V23.0806H383.347V17.0925C383.347 16.621 383.206 16.2439 382.97 15.961C382.734 15.6781 382.357 15.5366 381.791 15.5366H376.557V23.0806H376.651ZM376.651 6.53101V12.0947H381.131C382.027 12.0947 382.734 11.8589 383.206 11.3874C383.724 10.9159 383.96 10.2558 383.96 9.45429V9.17139C383.96 8.36985 383.724 7.70976 383.206 7.23826C382.734 6.76676 382.027 6.53101 381.084 6.53101H376.604H376.651Z" fill="#ffffff"/>
<path d="M397.303 23.4671C395.747 23.4671 394.426 23.1842 393.248 22.6184C392.069 22.0526 391.126 21.2982 390.466 20.2609C389.806 19.2236 389.475 17.9977 389.475 16.5361V15.7345H393.2V16.5361C393.2 17.7148 393.578 18.6106 394.332 19.2236C395.087 19.8365 396.077 20.1194 397.35 20.1194C398.623 20.1194 399.613 19.8837 400.226 19.365C400.839 18.8464 401.169 18.1863 401.169 17.3848C401.169 16.5832 401.028 16.3946 400.698 16.0646C400.368 15.7345 399.943 15.4516 399.33 15.2159C398.717 14.9801 398.01 14.7915 397.161 14.6029L396.501 14.4615C395.134 14.1786 393.955 13.7542 392.965 13.3299C391.975 12.8584 391.22 12.2454 390.701 11.491C390.183 10.7366 389.9 9.7465 389.9 8.52061C389.9 7.29471 390.183 6.25742 390.749 5.40872C391.314 4.56003 392.163 3.89993 393.2 3.42844C394.238 2.95694 395.511 2.72119 396.926 2.72119C398.34 2.72119 399.613 2.95694 400.745 3.42844C401.877 3.89993 402.725 4.65433 403.385 5.59733C403.998 6.54032 404.328 7.76621 404.328 9.1807V10.0294H400.603V9.1807C400.603 8.4263 400.462 7.81336 400.179 7.34186C399.896 6.87037 399.472 6.54032 398.906 6.30457C398.34 6.06882 397.68 5.97452 396.926 5.97452C395.794 5.97452 394.945 6.21027 394.426 6.63462C393.908 7.05897 393.625 7.62476 393.625 8.37916C393.625 9.13355 393.766 9.275 394.002 9.6522C394.238 9.98224 394.662 10.2651 395.134 10.5009C395.652 10.7366 396.313 10.9252 397.114 11.1138L397.774 11.2553C399.189 11.5382 400.415 11.9625 401.499 12.434C402.537 12.9055 403.385 13.5185 403.951 14.32C404.517 15.1216 404.847 16.1117 404.847 17.2904C404.847 18.4692 404.517 19.5536 403.904 20.4966C403.291 21.4396 402.395 22.1469 401.264 22.6655C400.132 23.1842 398.812 23.4671 397.256 23.4671H397.303Z" fill="#ffffff"/>
<path d="M421.539 23.4671C419.04 23.4671 417.06 22.7598 415.551 21.3925C414.089 20.0251 413.335 18.0448 413.335 15.4988V10.6895C413.335 8.1434 414.089 6.16312 415.551 4.79578C417.013 3.42843 419.04 2.72119 421.539 2.72119C424.038 2.72119 426.019 3.42843 427.528 4.79578C428.989 6.16312 429.744 8.1434 429.744 10.6895V15.4988C429.744 18.0448 428.989 20.0251 427.528 21.3925C426.066 22.7598 424.038 23.4671 421.539 23.4671ZM421.539 20.1194C422.954 20.1194 424.038 19.6951 424.793 18.8935C425.594 18.092 425.972 17.0075 425.972 15.6402V10.6423C425.972 9.275 425.594 8.19055 424.793 7.38901C423.991 6.58746 422.907 6.16312 421.539 6.16312C420.172 6.16312 419.088 6.58746 418.286 7.38901C417.484 8.19055 417.107 9.275 417.107 10.6423V15.6402C417.107 17.0075 417.484 18.092 418.286 18.8935C419.088 19.6951 420.172 20.1194 421.539 20.1194Z" fill="#ffffff"/>
<path d="M436.252 23.0806H432.48V3.13623H445.022V6.53101H436.252V11.3403H444.362V14.7351H436.252V23.0334V23.0806Z" fill="#ffffff"/>
<path d="M293.804 52.9348C291.352 52.9348 289.372 52.2276 287.957 50.8602C286.495 49.4929 285.788 47.5126 285.788 44.9665V40.1573C285.788 37.6112 286.495 35.6309 287.957 34.2635C289.419 32.8962 291.352 32.189 293.804 32.189C296.256 32.189 298.142 32.8491 299.509 34.2164C300.877 35.5837 301.537 37.3754 301.537 39.7329V39.9215H297.812V39.6386C297.812 38.4599 297.482 37.4697 296.822 36.7153C296.161 35.9609 295.171 35.5837 293.804 35.5837C292.436 35.5837 291.446 36.0081 290.692 36.8096C289.937 37.6112 289.56 38.7428 289.56 40.1573V45.0608C289.56 46.4282 289.937 47.5598 290.692 48.3613C291.446 49.21 292.484 49.5872 293.804 49.5872C295.124 49.5872 296.161 49.21 296.822 48.4556C297.482 47.7012 297.812 46.7111 297.812 45.5795V45.0608H301.537V45.438C301.537 47.7955 300.877 49.6343 299.509 50.9545C298.142 52.2747 296.256 52.982 293.804 52.982V52.9348Z" fill="#ffffff"/>
<path d="M316.91 52.5049H304.037V32.5605H307.81V49.0629H316.91V52.5049Z" fill="#ffffff"/>
<path d="M322.708 52.5049H318.936V32.5605H322.708V52.5049Z" fill="#ffffff"/>
<path d="M329.592 52.5049H325.961V32.5605H332.94L336.382 49.9588H336.901L340.343 32.5605H347.321V52.5049H343.691V35.3424H343.172L339.73 52.5049H333.506L330.064 35.3424H329.545V52.5049H329.592Z" fill="#ffffff"/>
<path d="M353.027 52.5049H349.161L354.395 32.5605H360.949L366.183 52.5049H362.316L361.232 48.1199H354.112L353.027 52.5049ZM357.413 34.918L355.008 44.6309H360.383L357.978 34.918H357.46H357.413Z" fill="#ffffff"/>
<path d="M374.578 52.5036H370.805V36.0012H365.006V32.6064H380.377V36.0012H374.578V52.5036Z" fill="#ffffff"/>
<path d="M395.418 52.5049H382.404V32.5605H395.229V35.9553H386.176V40.7175H394.428V44.1594H386.176V49.1101H395.418V52.552V52.5049Z" fill="#ffffff"/>
<path d="M408.102 52.5049H404.33V32.5605H408.102V52.5049Z" fill="#ffffff"/>
<path d="M414.987 52.5049H411.356V32.5605H418.335L421.777 49.9588H422.295L425.737 32.5605H432.716V52.5049H429.085V35.3424H428.567L425.124 52.5049H418.9L415.458 35.3424H414.94V52.5049H414.987Z" fill="#ffffff"/>
<path d="M439.694 52.5049H435.922V32.5605H444.126C445.4 32.5605 446.484 32.7963 447.427 33.3149C448.37 33.8336 449.125 34.5408 449.69 35.4367C450.256 36.3325 450.492 37.417 450.492 38.69V39.0672C450.492 40.2931 450.209 41.3775 449.643 42.3205C449.077 43.2635 448.323 43.9708 447.38 44.4423C446.437 44.9609 445.352 45.1967 444.126 45.1967H439.694V52.5049ZM439.694 36.0025V41.8019H443.749C444.645 41.8019 445.352 41.5661 445.918 41.0475C446.484 40.576 446.767 39.8688 446.767 39.0201V38.7372C446.767 37.8885 446.484 37.2284 445.918 36.7097C445.352 36.2382 444.645 35.9553 443.749 35.9553H439.694V36.0025Z" fill="#ffffff"/>
<path d="M453.557 52.5049H449.691L454.925 32.5605H461.479L466.713 52.5049H462.846L461.762 48.1199H454.642L453.557 52.5049ZM457.942 34.918L455.538 44.6309H460.913L458.508 34.918H457.99H457.942Z" fill="#ffffff"/>
<path d="M476.001 52.9348C473.549 52.9348 471.569 52.2276 470.154 50.8602C468.692 49.4929 467.985 47.5126 467.985 44.9665V40.1573C467.985 37.6112 468.692 35.6309 470.154 34.2635C471.616 32.8962 473.549 32.189 476.001 32.189C478.453 32.189 480.339 32.8491 481.706 34.2164C483.074 35.5837 483.734 37.3754 483.734 39.7329V39.9215H480.009V39.6386C480.009 38.4599 479.679 37.4697 479.019 36.7153C478.358 35.9609 477.368 35.5837 476.001 35.5837C474.633 35.5837 473.643 36.0081 472.889 36.8096C472.134 37.6112 471.757 38.7428 471.757 40.1573V45.0608C471.757 46.4282 472.134 47.5598 472.889 48.3613C473.643 49.21 474.681 49.5872 476.001 49.5872C477.321 49.5872 478.358 49.21 479.019 48.4556C479.679 47.7012 480.009 46.7111 480.009 45.5795V45.0608H483.734V45.438C483.734 47.7955 483.074 49.6343 481.706 50.9545C480.339 52.2747 478.453 52.982 476.001 52.982V52.9348Z" fill="#ffffff"/>
<path d="M494.2 52.5036H490.428V36.0012H484.628V32.6064H500V36.0012H494.2V52.5036Z" fill="#ffffff"/>
<path d="M4.99731 24.4094L15.8423 19.9302L16.6439 32.7077L4.99731 24.4094Z" fill="#00A544"/>
<path d="M28.3383 23.8398L37.9101 27.4704L29.9414 37.0418L28.3383 23.8398Z" fill="#00817F"/>
<path d="M16.6911 32.6992L6.6005 37.7914L4.99731 24.4009L16.6911 32.6992Z" fill="#008C80"/>
<path d="M38.5709 34.8262L29.9421 37.0422L18.5312 41.9929L27.9145 42.8416L38.5709 34.8262Z" fill="#00627B"/>
<path d="M16.691 32.704L29.9408 37.0418L28.3376 23.8398L16.691 32.704Z" fill="#008B80"/>
<path d="M28.3381 23.8442L15.8428 19.9308L24.3301 10.2651L28.3381 23.8442Z" fill="#00A544"/>
<path d="M9.2428 10.6895L15.8441 19.9308L24.3315 10.2651L9.2428 10.6895Z" fill="#31AE36"/>
<path d="M0 28.1291L4.99811 24.4043L0.188606 15.3516L0 28.1291Z" fill="#00A139"/>
<path d="M0.187988 15.348L4.9975 24.4007L9.2412 10.6802L0.187988 15.348Z" fill="#47B52F"/>
<path d="M0.187988 15.352L9.2412 10.6841L6.93074 5.30908L0.187988 15.352Z" fill="#67BF4B"/>
<path d="M15.8423 19.9215L9.241 10.6802L4.99731 24.4007L15.8423 19.9215Z" fill="#00A03F"/>
<path d="M0 28.1257L6.6013 37.7914L4.99812 24.4009L0 28.1257Z" fill="#00813A"/>
<path d="M16.8343 0.87793L9.2428 10.6851L24.3315 10.2607L16.8343 0.87793Z" fill="#59BA29"/>
<path d="M6.88354 5.35715L9.24115 10.6851L16.8326 0.87793L6.88354 5.35715Z" fill="#47B52F"/>
<path d="M16.6444 32.7077L15.8428 19.9302L28.3381 23.8436L16.6444 32.7077Z" fill="#009B3E"/>
<path d="M29.9408 37.0394L16.691 32.7017L18.53 41.9901L29.9408 37.0394Z" fill="#00818D"/>
<path d="M6.60095 37.7969L18.5304 41.9932L27.9137 42.8419L14.1924 42.889L6.60095 37.7969Z" fill="#00818D"/>
<path d="M28.3383 23.8362L37.9101 27.4667L36.9671 14.8306L28.3383 23.8362Z" fill="#00968B"/>
<path d="M36.9668 14.8371L38.0041 8.84912L42.295 21.4852L36.9668 14.8371Z" fill="#006D5C"/>
<path d="M16.8331 0.87793L30.2243 4.4613L26.9237 1.11368L16.8331 0.87793Z" fill="#00AA52"/>
<path d="M24.3303 10.2607L30.2243 4.4613L16.8331 0.87793L24.3303 10.2607Z" fill="#47B52F"/>
<path d="M24.3308 10.2651L28.3387 23.8442L36.9676 14.8387L24.3308 10.2651Z" fill="#009B3E"/>
<path d="M24.3308 10.255L30.2248 4.45557L36.9676 14.8285L24.3308 10.255Z" fill="#00A139"/>
<path d="M26.9248 1.10986L30.2255 4.45749L36.9682 14.8304L38.0056 8.84241L26.9248 1.10986Z" fill="#00923D"/>
<path d="M6.60095 37.7938L16.6915 32.7017L18.5304 41.9901L6.60095 37.7938Z" fill="#007C87"/>
<path d="M29.9413 37.0445L38.5701 34.8285L37.91 27.4731L29.9413 37.0445Z" fill="#007788"/>
<path d="M37.8627 27.4667L42.295 21.4787L36.9668 14.8306L37.8627 27.4667Z" fill="#00823B"/>
<path d="M42.2954 21.4834L38.5703 34.8268L37.863 27.4714L42.2954 21.4834Z" fill="#007481"/>
<path d="M266.55 53.1225V2.67236" stroke="#ffffff" stroke-width="3" stroke-miterlimit="10"/>
</svg>
